<?xml version="1.0" encoding="utf-8"?>
<svg id="b3df86d2-2022-47c6-a781-bb5144daf06b" data-name="Layer 1" width="802.02697" height="671px" viewBox="0 0 802.02697 671" xmlns="http://www.w3.org/2000/svg">
  <title>researching</title>
  <rect x="464.906" y="295.808" width="337.121" height="9.889" fill="#e6e6e6"/>
  <rect x="492.774" y="213.101" width="85.404" height="85.404" fill="#e6e6e6"/>
  <rect x="509.855" y="230.182" width="51.242" height="51.242" fill="#ccc"/>
  <rect x="684.259" y="213.101" width="21.576" height="85.404" fill="#e6e6e6"/>
  <rect x="684.259" y="226.586" width="21.576" height="9.889" fill="#ccc"/>
  <rect x="684.259" y="269.737" width="21.576" height="9.889" fill="#ccc"/>
  <rect x="650.997" y="213.101" width="21.576" height="85.404" fill="#e6e6e6"/>
  <rect x="650.997" y="226.586" width="21.576" height="9.889" fill="#ccc"/>
  <rect x="650.997" y="269.737" width="21.576" height="9.889" fill="#ccc"/>
  <rect x="921.902" y="290.643" width="21.576" height="85.404" transform="matrix(0.89618, -0.443691, 0.443691, 0.89618, -250.056503, 370.892029)" fill="#e6e6e6"/>
  <rect x="911.133" y="306.647" width="21.576" height="9.889" transform="matrix(0.89618, -0.443691, 0.443691, 0.89618, -241.523117, 363.855286)" fill="#ccc"/>
  <rect x="930.279" y="345.319" width="21.576" height="9.889" transform="matrix(0.89618, -0.443691, 0.443691, 0.89618, -256.693604, 376.365051)" fill="#ccc"/>
  <polygon points="524.688 247.382 535.554 266.201 546.419 285.02 524.688 285.02 502.958 285.02 513.823 266.201 524.688 247.382" fill="#e6e6e6"/>
  <polygon points="543.567 250.978 554.432 269.797 565.298 288.616 543.567 288.616 521.837 288.616 532.702 269.797 543.567 250.978" fill="#e6e6e6"/>
  <circle cx="551.209" cy="239.171" r="6.293" fill="#e6e6e6"/>
  <rect x="-802.027" y="-169.949" width="337.121" height="9.889" transform="matrix(-1, 0, 0, -1, 0, 0)" fill="#e6e6e6"/>
  <rect x="-774.158" y="-162.757" width="85.404" height="85.404" transform="matrix(-1, 0, 0, -1, 0, 0)" fill="#e6e6e6"/>
  <rect x="-757.077" y="-145.676" width="51.242" height="51.242" transform="matrix(-1, 0, 0, -1, 0, 0)" fill="#ccc"/>
  <rect x="-582.673" y="-162.757" width="21.576" height="85.404" transform="matrix(-1, 0, 0, -1, 0, 0)" fill="#e6e6e6"/>
  <rect x="-582.673" y="-100.727" width="21.576" height="9.889" transform="matrix(-1, 0, 0, -1, 0, 0)" fill="#ccc"/>
  <rect x="-582.673" y="-143.878" width="21.576" height="9.889" transform="matrix(-1, 0, 0, -1, 0, 0)" fill="#ccc"/>
  <rect x="-615.936" y="-162.757" width="21.576" height="85.404" transform="matrix(-1, 0, 0, -1, 0, 0)" fill="#e6e6e6"/>
  <rect x="-615.936" y="-100.727" width="21.576" height="9.889" transform="matrix(-1, 0, 0, -1, 0, 0)" fill="#ccc"/>
  <rect x="-615.936" y="-143.878" width="21.576" height="9.889" transform="matrix(-1, 0, 0, -1, 0, 0)" fill="#ccc"/>
  <rect x="721.427" y="154.895" width="21.576" height="85.404" transform="matrix(-0.89618, -0.443691, 0.443691, -0.89618, 1101.75354, 622.014893)" fill="#e6e6e6"/>
  <rect x="732.197" y="170.9" width="21.576" height="9.889" transform="matrix(-0.89618, -0.443691, 0.443691, -0.89618, 1131.82605, 585.546143)" fill="#ccc"/>
  <rect x="713.051" y="209.571" width="21.576" height="9.889" transform="matrix(-0.89618, -0.443691, 0.443691, -0.89618, 1078.36377, 650.379456)" fill="#ccc"/>
  <polygon points="742.244 111.634 731.379 130.453 720.514 149.272 742.244 149.272 763.975 149.272 753.109 130.453 742.244 111.634" fill="#e6e6e6"/>
  <polygon points="723.365 115.23 712.5 134.049 701.635 152.868 723.365 152.868 745.096 152.868 734.231 134.049 723.365 115.23" fill="#e6e6e6"/>
  <circle cx="715.724" cy="103.424" r="6.293" fill="#e6e6e6"/>
  <rect x="-802.027" y="-441.444" width="337.121" height="9.889" transform="matrix(-1, 0, 0, -1, 0, 0)" fill="#e6e6e6"/>
  <rect x="-774.158" y="-434.252" width="85.404" height="85.404" transform="matrix(-1, 0, 0, -1, 0, 0)" fill="#e6e6e6"/>
  <rect x="-757.077" y="-417.172" width="51.242" height="51.242" transform="matrix(-1, 0, 0, -1, 0, 0)" fill="#ccc"/>
  <rect x="-582.673" y="-434.252" width="21.576" height="85.404" transform="matrix(-1, 0, 0, -1, 0, 0)" fill="#e6e6e6"/>
  <rect x="-582.673" y="-372.222" width="21.576" height="9.889" transform="matrix(-1, 0, 0, -1, 0, 0)" fill="#ccc"/>
  <rect x="-582.673" y="-415.374" width="21.576" height="9.889" transform="matrix(-1, 0, 0, -1, 0, 0)" fill="#ccc"/>
  <rect x="-615.936" y="-434.252" width="21.576" height="85.404" transform="matrix(-1, 0, 0, -1, 0, 0)" fill="#e6e6e6"/>
  <rect x="-615.936" y="-372.222" width="21.576" height="9.889" transform="matrix(-1, 0, 0, -1, 0, 0)" fill="#ccc"/>
  <rect x="-615.936" y="-415.374" width="21.576" height="9.889" transform="matrix(-1, 0, 0, -1, 0, 0)" fill="#ccc"/>
  <rect x="721.427" y="426.39" width="21.576" height="85.404" transform="matrix(-0.89618, -0.443691, 0.443691, -0.89618, 981.29364, 1136.818481)" fill="#e6e6e6"/>
  <rect x="732.197" y="442.395" width="21.576" height="9.889" transform="matrix(-0.89618, -0.443691, 0.443691, -0.89618, 1011.366211, 1100.349854)" fill="#ccc"/>
  <rect x="713.051" y="481.067" width="21.576" height="9.889" transform="matrix(-0.89618, -0.443691, 0.443691, -0.89618, 957.90387, 1165.183105)" fill="#ccc"/>
  <polygon points="742.244 383.129 731.379 401.948 720.514 420.768 742.244 420.768 763.975 420.768 753.109 401.948 742.244 383.129" fill="#e6e6e6"/>
  <polygon points="723.365 386.725 712.5 405.544 701.635 424.364 723.365 424.364 745.096 424.364 734.231 405.544 723.365 386.725" fill="#e6e6e6"/>
  <circle cx="715.724" cy="374.919" r="6.293" fill="#e6e6e6"/>
  <ellipse cx="397.129" cy="639.711" rx="397.129" ry="28.205" fill="#e6e6e6"/>
  <path d="M 707.387 655.506 C 642.632 643.981 571.819 645.897 497.54 655.506 C 531.395 626.925 560.615 598.343 526.759 569.762 C 592.798 583.386 602.048 582.007 675.511 569.762 C 658.472 598.343 690.347 626.925 707.387 655.506 Z" fill="#7c5aa6"/>
  <path d="M 707.387 655.506 C 642.632 643.981 571.819 645.897 497.54 655.506 C 531.395 626.925 560.615 598.343 526.759 569.762 C 592.798 583.386 602.048 582.007 675.511 569.762 C 658.472 598.343 690.347 626.925 707.387 655.506 Z" opacity="0.2"/>
  <path d="M 691.592 643.312 C 636.585 634.113 576.432 635.642 513.335 643.312 C 542.094 620.498 566.914 597.684 538.155 574.87 C 594.253 585.745 602.111 584.644 664.515 574.87 C 650.041 597.684 677.118 620.498 691.592 643.312 Z" fill="#7c5aa6"/>
  <circle cx="670.64" cy="577.244" r="29.309" fill="#2f2e41"/>
  <polygon points="537.591 543.249 557.899 546.634 568.053 575.967 538.72 594.019 504.873 543.249 536.463 543.249 537.591 543.249" fill="#a0616a"/>
  <circle cx="595.13" cy="540.993" r="47.385" fill="#a0616a"/>
  <path d="M 333.386 368.377 C 333.386 368.377 218.308 380.787 198.001 378.531 C 177.693 376.274 168.667 374.018 168.667 374.018 C 168.667 374.018 155.129 392.069 161.898 399.967 C 165.689 404.518 170.277 408.341 175.436 411.249 C 175.436 411.249 187.847 407.864 196.872 411.249 C 205.898 414.633 297.283 429.3 313.078 415.762 C 328.873 402.223 333.386 368.377 333.386 368.377 Z" fill="#2f2e41"/>
  <path d="M 341.283 619.967 C 341.283 619.967 265.693 598.531 252.155 503.762 L 252.155 494.736 C 252.155 494.736 237.198 520.975 231.847 526.326 C 225.642 532.531 203.642 588.378 204.77 594.019 C 205.898 599.66 204.77 601.916 204.77 601.916 L 172.052 598.532 L 172.052 588.378 C 172.052 588.378 189.539 535.916 190.667 523.506 C 191.795 511.095 234.103 424.787 234.103 424.787 C 234.103 424.787 249.898 392.069 276.975 424.787 C 304.052 457.505 306.309 480.07 306.309 480.07 L 341.283 547.762 Z" fill="#2f2e41"/>
  <path d="M 172.052 370.633 L 135.949 358.223 C 135.949 358.223 102.103 333.402 110 358.223 C 117.898 383.044 154 437.198 164.154 431.557 C 174.308 425.916 186.52 411.913 183.799 409.889 C 181.077 407.864 163.026 393.198 172.052 370.633 Z" fill="#2f2e41"/>
  <path d="M 176.416 581.717 L 147.272 595.95 C 147.272 595.95 112.028 601.372 131.683 611.538 C 151.338 621.705 205.559 632.549 208.271 623.06 C 210.982 613.572 209.906 597.824 207.055 598.243 C 204.204 598.661 184.549 600.694 176.416 581.717 Z" fill="#2f2e41"/>
  <path d="M 326.616 545.506 C 326.616 545.506 311.95 608.685 336.77 622.224 C 361.591 635.762 535.335 638.019 548.873 613.198 C 562.412 588.378 555.643 588.378 555.643 588.378 L 519.54 547.762 L 548.873 545.506 C 548.873 545.506 548.873 536.48 538.72 535.352 C 528.566 534.224 496.976 522.942 469.899 530.839 C 442.822 538.736 427.027 515.044 427.027 515.044 Z" fill="#575a89"/>
  <polygon points="307.437 348.069 288.257 452.993 420.258 437.198 443.95 342.428 307.437 348.069" fill="#3f3d56"/>
  <polygon points="311.386 352.018 295.591 445.659 415.745 431.557 438.873 346.377 311.386 352.018" fill="#fff"/>
  <polygon points="292.77 454.121 288.257 452.993 286.001 457.505 322.104 557.916 325.499 556.618 326.616 550.019 292.77 454.121" fill="#b3b3b3"/>
  <polygon points="288.257 451.864 324.36 556.788 460.873 536.48 420.258 437.198 288.257 451.864" fill="#d0cde1"/>
  <polygon points="306.309 448.48 306.309 454.121 406.719 442.839 405.591 437.198 306.309 448.48" fill="#3f3d56"/>
  <polygon points="308.565 459.762 324.36 503.762 427.027 491.352 408.976 449.608 308.565 459.762" fill="#3f3d56"/>
  <path d="M 437.181 521.813 L 433.796 512.788 C 433.796 512.788 407.847 467.659 394.309 476.685 C 380.77 485.711 422.514 529.711 422.514 529.711 L 436.053 529.711 Z" fill="#a0616a"/>
  <path d="M 351.437 528.583 L 348.052 515.044 C 348.052 515.044 339.027 473.3 354.822 475.557 C 370.617 477.813 375.129 517.3 375.129 517.3 L 374.001 526.326 Z" fill="#a0616a"/>
  <path d="M 378.514 522.942 C 378.514 522.942 349.181 518.429 348.052 525.198 C 346.924 531.967 341.283 633.506 369.488 636.891 C 397.694 640.275 537.591 654.942 522.925 619.967 C 508.258 584.993 485.694 589.506 485.694 589.506 L 389.796 599.66 Z" fill="#575a89"/>
  <polygon points="467.078 535.916 437.181 515.044 417.437 530.275 442.258 557.352 467.078 535.916" fill="#575a89"/>
  <polygon points="386.976 556.224 391.488 599.096 469.335 594.583 401.642 593.455 386.976 556.224" opacity="0.2"/>
  <circle cx="618.521" cy="549.603" r="56.41" fill="#2f2e41"/>
  <polygon points="328.309 384.736 398.258 382.301 405.027 356.531 332.822 358.71 328.309 384.736" fill="#7c5aa6"/>
  <polygon points="310.258 399.403 416.309 396.018 417.437 391.505 311.386 395.239 310.258 399.403" fill="#e6e6e6"/>
  <polygon points="308.001 410.685 414.053 407.3 415.181 402.787 309.129 406.521 308.001 410.685" fill="#e6e6e6"/>
  <polygon points="306.873 419.71 412.924 416.326 414.053 411.813 308.001 415.546 306.873 419.71" fill="#e6e6e6"/>
</svg>